<?xml version="1.0" standalone="no"?><!DOCTYPE svg PUBLIC "-//W3C//DTD SVG 1.1//EN" "http://www.w3.org/Graphics/SVG/1.1/DTD/svg11.dtd"><svg t="1623924743933" class="icon" viewBox="0 0 1024 1024" version="1.1" xmlns="http://www.w3.org/2000/svg" p-id="3280" xmlns:xlink="http://www.w3.org/1999/xlink" width="200" height="200"><defs><style type="text/css"></style></defs><path d="M573.44 199.68c-15.36-5.12-30.72 5.12-35.84 25.6l-112.64 563.2c-5.12 15.36 5.12 30.72 25.6 35.84h5.12c15.36 0 25.6-10.24 30.72-25.6l112.64-563.2c0-15.36-10.24-30.72-25.6-35.84zM322.56 281.6c-10.24-10.24-30.72-10.24-40.96 5.12l-168.96 204.8c-10.24 10.24-10.24 30.72-5.12 40.96l168.96 204.8c5.12 5.12 15.36 10.24 25.6 10.24 5.12 0 15.36 0 20.48-5.12 15.36-10.24 15.36-30.72 5.12-40.96l-153.6-184.32 153.6-184.32c10.24-20.48 10.24-40.96-5.12-51.2zM916.48 491.52l-168.96-204.8c-10.24-15.36-30.72-15.36-40.96-5.12-15.36 10.24-15.36 30.72-5.12 40.96l153.6 184.32-153.6 184.32c-10.24 15.36-10.24 30.72 5.12 40.96 5.12 5.12 10.24 5.12 20.48 5.12s15.36-5.12 25.6-10.24l168.96-204.8s0-20.48-5.12-30.72z" p-id="3281"></path></svg>