<?xml version="1.0" standalone="no"?><!DOCTYPE svg PUBLIC "-//W3C//DTD SVG 1.1//EN" "http://www.w3.org/Graphics/SVG/1.1/DTD/svg11.dtd"><svg t="1624093382833" class="icon" viewBox="0 0 1024 1024" version="1.1" xmlns="http://www.w3.org/2000/svg" p-id="1498" xmlns:xlink="http://www.w3.org/1999/xlink" width="200" height="200"><defs><style type="text/css"></style></defs><path d="M389.12 727.04a20.48 20.48 0 0 0 20.48-20.48V440.32a20.48 20.48 0 0 0-40.96 0v266.24a20.48 20.48 0 0 0 20.48 20.48zM512 727.04a20.48 20.48 0 0 0 20.48-20.48V440.32a20.48 20.48 0 0 0-40.96 0v266.24a20.48 20.48 0 0 0 20.48 20.48zM634.88 727.04a20.48 20.48 0 0 0 20.48-20.48V440.32a20.48 20.48 0 0 0-40.96 0v266.24a20.48 20.48 0 0 0 20.48 20.48z" p-id="1499"></path><path d="M880.64 245.76H688.8448l-38.2976-81.92a72.192 72.192 0 0 0-65.1264-40.96H439.5008a71.68 71.68 0 0 0-64.8192 40.96l-39.424 81.92H143.36a20.48 20.48 0 0 0 0 40.96h81.92v491.52a122.88 122.88 0 0 0 122.88 122.88h327.68a122.88 122.88 0 0 0 122.88-122.88V286.72h81.92a20.48 20.48 0 0 0 0-40.96z m-469.0944-64.3072A30.72 30.72 0 0 1 439.5008 163.84h145.92a30.72 30.72 0 0 1 28.0576 17.8176L643.584 245.76H380.7232zM757.76 778.24a81.92 81.92 0 0 1-81.92 81.92H348.16a81.92 81.92 0 0 1-81.92-81.92V286.72h491.52z" p-id="1500"></path></svg>