<?xml version="1.0" standalone="no"?><!DOCTYPE svg PUBLIC "-//W3C//DTD SVG 1.1//EN" "http://www.w3.org/Graphics/SVG/1.1/DTD/svg11.dtd"><svg t="1624093412703" class="icon" viewBox="0 0 1024 1024" version="1.1" xmlns="http://www.w3.org/2000/svg" p-id="1652" xmlns:xlink="http://www.w3.org/1999/xlink" width="200" height="200"><defs><style type="text/css"></style></defs><path d="M931.84 634.88a20.48 20.48 0 0 0-20.48 20.48v174.08a81.92 81.92 0 0 1-81.92 81.92H194.56a81.92 81.92 0 0 1-81.92-81.92V655.36a20.48 20.48 0 0 0-40.96 0v174.08a122.88 122.88 0 0 0 122.88 122.88h634.88a122.88 122.88 0 0 0 122.88-122.88V655.36a20.48 20.48 0 0 0-20.48-20.48z" p-id="1653"></path><path d="M500.3264 680.448a20.48 20.48 0 0 0 14.1312 5.632 20.48 20.48 0 0 0 14.2336-5.7344l233.0624-225.28a20.48 20.48 0 1 0-28.4672-29.4912L532.48 619.6224V92.16a20.48 20.48 0 0 0-40.96 0v523.5712L290.6112 425.3696a20.48 20.48 0 0 0-28.2624 29.696z" p-id="1654"></path></svg>