<?xml version="1.0" standalone="no"?><!DOCTYPE svg PUBLIC "-//W3C//DTD SVG 1.1//EN" "http://www.w3.org/Graphics/SVG/1.1/DTD/svg11.dtd"><svg t="1625795523559" class="icon" viewBox="0 0 1024 1024" version="1.1" xmlns="http://www.w3.org/2000/svg" p-id="16221" xmlns:xlink="http://www.w3.org/1999/xlink" width="200" height="200"><defs><style type="text/css"></style></defs><path d="M512 1024C229.23 1024 0 794.77 0 512S229.23 0 512 0s512 229.23 512 512-229.23 512-512 512z m-54.09-537.344c-3.18 13.312-5.85 24.357-12.104 49.737-8.01 32.476-11.264 45.897-15.177 62.537-7.461 31.452-13.715 59.831-19.164 86.784-2.999 14.812 0.841 29.367 10.898 42.13 7.754 9.875 19.859 15.653 32.549 15.653 5.376 0 10.606-1.06 15.47-3.145 19.42-8.375 36.352-18.066 65.17-37.083l10.862-7.278c5.23-3.548 9.252-6.29 19.675-13.495l4.754-3.291 4.462-3.036 7.57-5.193 5.047-3.474-2.523-5.596-3.804-8.375a138.423 138.423 0 0 0-3.108-6.51l-5.12-9.91-3.438-6.583-6.546 3.474-9.838 5.303c-3.072 1.646-6.18 3.548-9.435 5.742-2.304 1.5-4.133 2.78-8.412 5.778-8.411 5.852-11.74 8.046-16.018 10.496a31.963 31.963 0 0 1-11.703 3.401c1.28-0.146 1.902 0.183 1.938 0.22-0.219-0.256 0.074-2.195 0.074-2.195 5.522-24.21 7.79-34.011 10.788-46.372a1762.508 1762.508 0 0 1 7.095-28.672l1.61-6.217 1.645-6.217a7511.954 7511.954 0 0 1 16.896-63.89l7.497-28.088 1.353-5.12 1.353-5.156 4.9-18.542c3.365-12.8 3.804-25.49 1.317-37.668-2.816-13.678-9.654-22.894-21.138-27.173a38.217 38.217 0 0 0-29.732 1.317l-2.78 1.316c-17.554 8.302-24.576 12.142-32.987 17.993-14.629 10.167-26.149 18.579-54.126 39.388l-19.456 14.409a822.857 822.857 0 0 0-12.434 9.435l-0.622 0.44-7.607 5.85-5.12 3.877 3.218 5.559 4.755 8.338 2.925 4.974 6.218 9.984 4.169 6.656 6.363-4.608 9.509-6.875 2.34-1.72 2.195-1.608a149.577 149.577 0 0 1 14.409-9.875c7.533-4.388 15.762-8.52 25.27-12.617-0.255 0-1.462-0.731-1.791-3.803a26.112 26.112 0 0 1-0.11 8.594z m-4.095-214.491c0.585 13.568 4.388 23.698 12.507 32.11 11.923 12.36 27.904 17.956 47.763 17.115a69.12 69.12 0 0 0 40.996-15.068c22.309-17.956 28.745-40.375 18.03-64.22-6.839-15.176-20.005-24.721-38.693-28.379a82.03 82.03 0 0 0-15.725-1.609c-7.498 0-14.52 1.207-21.139 3.657-25.6 9.472-40.52 27.868-43.63 53.76l-0.11 2.048v0.586z" p-id="16222"></path></svg>