<?xml version="1.0" standalone="no"?><!DOCTYPE svg PUBLIC "-//W3C//DTD SVG 1.1//EN" "http://www.w3.org/Graphics/SVG/1.1/DTD/svg11.dtd"><svg t="1624092170497" class="icon" viewBox="0 0 1024 1024" version="1.1" xmlns="http://www.w3.org/2000/svg" p-id="978" xmlns:xlink="http://www.w3.org/1999/xlink" width="200" height="200"><defs><style type="text/css"></style></defs><path d="M656.49118373 879.1784627c-55.54294126 0-109.2594904-18.14608953-154.07974241-52.5087737l-97.81508165-75.014638c-18.55850066-14.22818384-22.04926625-40.78451456-7.83581139-59.31355727 14.21345486-18.55850066 40.79924353-22.03453728 59.31355727-7.83581139l97.81508166 75.01463798c35.95341278 27.55790059 80.42016954 39.54728117 125.32879533 33.52313296 44.89389684-5.92104545 84.79467327-28.9718816 112.35257385-64.88110747 56.88327743-74.17508677 42.81711223-180.79809175-31.34324556-237.6813692l-97.81508166-75.01463798c-18.55850066-14.22818384-22.04926625-40.78451456-7.83581139-59.31355729 14.21345486-18.57322963 40.79924353-22.04926625 59.31355728-7.83581139l97.81508165 75.014638c111.20371427 85.28072923 132.29559757 245.13422738 47.01486836 356.33794167-41.30002846 53.86383883-101.12909964 88.40327061-168.425758 97.29956775-11.29711904 1.47289687-22.59423811 2.20934532-33.80298334 2.20934533zM337.85940212 689.49880275c-8.98467097 0-18.04298676-2.85741995-25.7167795-8.73427847l-97.81508165-75.01463801c-111.20371427-85.28072923-132.29559757-245.13422738-47.01486833-356.32321271 41.28529949-53.86383883 101.12909964-88.41799958 168.42575797-97.29956774 67.31138733-8.89629715 134.04834486 8.98467097 187.91218369 50.28469941l97.80035271 75.01463799c18.55850066 14.22818384 22.04926625 40.78451456 7.83581138 59.31355727-14.21345486 18.55850066-40.82870146 22.01980833-59.31355728 7.8358114l-97.81508166-75.01463799c-35.92395486-27.54317163-80.33179572-39.51782324-125.32879534-33.53786191-44.9086258 5.92104545-84.79467327 28.9718816-112.35257385 64.88110747-56.88327743 74.17508677-42.81711223 180.79809175 31.34324556 237.68136919l97.81508166 75.01463798c18.55850066 14.22818384 22.04926625 40.78451456 7.83581139 59.31355727-8.33659632 10.88470794-20.91513568 16.58481885-33.61150675 16.58481885z" fill="#000000" p-id="979"></path><path d="M692.15001714 694.25625968a42.15430864 42.15430864 0 0 1-25.71677949-8.73427849l-358.3558104-274.79837051c-18.55850066-14.22818384-22.04926625-40.78451456-7.83581139-59.31355727 14.24291281-18.55850066 40.81397248-22.00507936 59.31355728-7.8358114l358.35581039 274.78364154c18.55850066 14.22818384 22.04926625 40.78451456 7.83581138 59.31355729-8.32186737 10.86997897-20.90040671 16.58481885-33.59677777 16.58481884z" p-id="980"></path></svg>