<?xml version="1.0" standalone="no"?><!DOCTYPE svg PUBLIC "-//W3C//DTD SVG 1.1//EN" "http://www.w3.org/Graphics/SVG/1.1/DTD/svg11.dtd"><svg t="1624093318678" class="icon" viewBox="0 0 1024 1024" version="1.1" xmlns="http://www.w3.org/2000/svg" p-id="1345" xmlns:xlink="http://www.w3.org/1999/xlink" width="200" height="200"><defs><style type="text/css"></style></defs><path d="M723.456 581.8368A256 256 0 0 0 931.84 226.304a20.48 20.48 0 0 0-33.28-6.4512L780.288 337.92a21.2992 21.2992 0 0 1-30.1056 0L686.08 273.8176a21.2992 21.2992 0 0 1 0-30.1056l118.0672-117.8624A20.48 20.48 0 0 0 797.696 92.16 256 256 0 0 0 460.8 426.0864l-2.6624 2.6624-215.04-215.04 16.1792-16.2816a20.48 20.48 0 0 0 6.0416-15.5648 20.48 20.48 0 0 0-7.5776-14.7456l-109.9776-89.088a20.48 20.48 0 0 0-27.3408 1.4336l-40.96 40.96a20.48 20.48 0 0 0-1.4336 27.3408l88.6784 109.1584a20.48 20.48 0 0 0 14.7456 7.5776h1.1264a20.48 20.48 0 0 0 14.4384-6.0416l16.2816-16.1792 215.04 215.04L100.0448 786.432A97.28 97.28 0 0 0 237.568 923.9552l272.384-272.384 271.2576 271.2576a100.1472 100.1472 0 1 0 141.6192-141.6192zM184.32 213.504l-62.6688-77.2096 14.848-14.848L213.504 184.32z m24.2688 681.472a56.2176 56.2176 0 0 1-79.5648-79.5648l370.2784-370.3808a20.48 20.48 0 0 0 3.9936-23.4496 215.04 215.04 0 0 1 248.832-301.6704L657.3056 215.04a62.3616 62.3616 0 0 0 0 88.064l63.8976 63.8976a62.3616 62.3616 0 0 0 88.064 0l94.8224-94.8224a215.04 215.04 0 0 1-301.6704 248.832 20.48 20.48 0 0 0-23.4496 3.9936z m685.2608-1.1264a59.2896 59.2896 0 0 1-83.6608 0L538.9312 622.592l58.9824-59.392a251.5968 251.5968 0 0 0 67.072 17.6128l228.864 229.376a59.2896 59.2896 0 0 1 0 83.6608z" p-id="1346"></path></svg>