<?xml version="1.0" standalone="no"?><!DOCTYPE svg PUBLIC "-//W3C//DTD SVG 1.1//EN" "http://www.w3.org/Graphics/SVG/1.1/DTD/svg11.dtd"><svg t="1624093446263" class="icon" viewBox="0 0 1024 1024" version="1.1" xmlns="http://www.w3.org/2000/svg" p-id="1959" xmlns:xlink="http://www.w3.org/1999/xlink" width="200" height="200"><defs><style type="text/css"></style></defs><path d="M512 317.44a194.56 194.56 0 1 0 194.56 194.56 194.56 194.56 0 0 0-194.56-194.56z m0 348.16a153.6 153.6 0 1 1 153.6-153.6 153.6 153.6 0 0 1-153.6 153.6z" p-id="1960"></path><path d="M965.2224 428.4416a20.48 20.48 0 0 0-17.1008-16.5888L861.9008 399.36a372.0192 372.0192 0 0 0-25.7024-58.7776l51.2-71.68a20.48 20.48 0 0 0 0-23.8592 466.0224 466.0224 0 0 0-114.3808-112.64 20.48 20.48 0 0 0-23.8592 0l-71.68 53.76A372.9408 372.9408 0 0 0 620.3392 163.84l-14.4384-89.2928a20.48 20.48 0 0 0-16.7936-16.896 467.7632 467.7632 0 0 0-160.6656 1.1264 20.48 20.48 0 0 0-16.5888 17.1008l-13.312 90.7264a359.3216 359.3216 0 0 0-55.296 23.3472l-74.1376-53.6576a20.48 20.48 0 0 0-23.8592 0 466.3296 466.3296 0 0 0-59.0848 49.9712 473.088 473.088 0 0 0-53.76 64.4096 20.48 20.48 0 0 0 0 23.8592l53.9648 72.6016a377.6512 377.6512 0 0 0-22.528 56.6272l-88.7808 14.336a20.48 20.48 0 0 0-16.896 16.7936 464.2816 464.2816 0 0 0 1.1264 160.6656 20.48 20.48 0 0 0 17.1008 16.5888L162.6112 624.64a360.8576 360.8576 0 0 0 24.4736 59.8016l-51.2 70.2464a20.48 20.48 0 0 0 0 23.8592 466.0224 466.0224 0 0 0 114.3808 112.64 20.48 20.48 0 0 0 23.8592 0l67.7888-50.3808a372.224 372.224 0 0 0 62.5664 25.8048l13.312 82.8416a20.48 20.48 0 0 0 16.7936 16.896 464.2816 464.2816 0 0 0 160.6656-1.1264 20.48 20.48 0 0 0 16.5888-17.1008l12.0832-81.92a374.784 374.784 0 0 0 63.3856-26.8288l67.2768 48.64a20.48 20.48 0 0 0 23.8592 0 472.2688 472.2688 0 0 0 59.0848-49.9712 466.944 466.944 0 0 0 53.76-64.4096 20.48 20.48 0 0 0 0-23.8592l-50.176-67.3792a360.3456 360.3456 0 0 0 24.6784-62.7712l83.7632-13.5168a20.48 20.48 0 0 0 16.896-16.7936 464.2816 464.2816 0 0 0-1.1264-160.6656z m-37.0688 139.3664l-81.92 13.2096A20.48 20.48 0 0 0 829.44 596.1728a324.3008 324.3008 0 0 1-30.72 77.824 20.48 20.48 0 0 0 1.7408 22.3232L849.92 761.9584a426.0864 426.0864 0 0 1-82.6368 83.7632L700.928 798.72a20.48 20.48 0 0 0-22.3232-1.1264 325.12 325.12 0 0 1-78.2336 33.1776 20.48 20.48 0 0 0-14.7456 16.6912L573.44 927.3344a426.3936 426.3936 0 0 1-117.5552 0.8192l-13.0048-80.896a20.48 20.48 0 0 0-14.9504-16.4864A321.536 321.536 0 0 1 350.8224 798.72a20.48 20.48 0 0 0-22.4256 1.3312L262.0416 849.92a426.0864 426.0864 0 0 1-83.7632-82.6368l49.4592-68.5056a20.48 20.48 0 0 0 1.2288-22.9376 328.2944 328.2944 0 0 1-30.72-74.9568 20.48 20.48 0 0 0-16.7936-14.9504L96.6656 573.44A428.7488 428.7488 0 0 1 92.16 512a422.1952 422.1952 0 0 1 3.6864-55.808l86.7328-14.0288a20.48 20.48 0 0 0 16.4864-14.6432 321.9456 321.9456 0 0 1 29.7984-71.68 20.48 20.48 0 0 0-1.4336-22.2208l-52.8384-71.0656a426.0864 426.0864 0 0 1 82.6368-83.7632l72.4992 52.4288a20.48 20.48 0 0 0 22.2208 1.1264 320.2048 320.2048 0 0 1 70.656-29.7984 20.48 20.48 0 0 0 14.5408-16.6912L450.56 96.6656a426.3936 426.3936 0 0 1 117.5552-0.8192l14.1312 87.7568a20.48 20.48 0 0 0 15.0528 16.5888 324.8128 324.8128 0 0 1 72.4992 28.3648 20.48 20.48 0 0 0 22.016-1.536l70.4512-52.4288a426.0864 426.0864 0 0 1 83.7632 82.6368l-50.4832 69.8368a20.48 20.48 0 0 0-1.024 22.4256 322.4576 322.4576 0 0 1 32.3584 73.8304 20.48 20.48 0 0 0 16.6912 14.5408L927.3344 450.56a428.7488 428.7488 0 0 1 4.5056 61.44 423.3216 423.3216 0 0 1-3.6864 55.808z" p-id="1961"></path></svg>