<?xml version="1.0" standalone="no"?><!DOCTYPE svg PUBLIC "-//W3C//DTD SVG 1.1//EN" "http://www.w3.org/Graphics/SVG/1.1/DTD/svg11.dtd"><svg t="1629210730822" class="icon" viewBox="0 0 1024 1024" version="1.1" xmlns="http://www.w3.org/2000/svg" p-id="2078" xmlns:xlink="http://www.w3.org/1999/xlink" width="200" height="200"><defs><style type="text/css"></style></defs><path d="M971.366 334.438c0-22.937 0.308-42.598-0.102-62.259-1.024-52.429 10.035-44.339-45.773-62.976a32.42 32.42 0 0 0-4.505-1.229c-90.01-16.076-179.303-19.046-266.138 15.872-56.832 22.836-99.328 61.748-121.446 119.604-27.546 72.294-6.35 152.985 51.404 206.438 45.876 42.496 101.786 68.71 156.16 97.28 40.141 21.094 81.204 40.14 116.224 70.042 44.544 37.99 52.02 91.545 31.744 138.956-19.25 45.159-61.44 57.344-104.345 64.103-39.22 6.144-78.848 3.993-117.965-4.915-46.49-10.65-91.136-25.19-130.253-53.76-2.97-2.15-8.397-4.404-10.854-3.175-2.458 1.331-3.687 6.963-3.687 10.752-0.307 27.239 0.41 54.477-0.41 81.715-0.409 12.186 3.687 19.047 14.746 24.167 55.808 25.805 115.508 34.816 175.719 38.093 53.862 2.867 107.213-5.223 157.9-24.372 74.65-28.262 121.959-80.998 131.482-162.099 7.475-63.18-11.366-118.477-56.934-164.147-46.9-47.104-104.653-77.005-162.919-106.496-40.448-20.378-82.124-38.707-116.428-69.632-31.13-28.058-44.75-62.054-37.376-103.834 8.396-48.128 42.496-70.553 84.48-85.196 33.28-11.572 67.686-10.752 102.092-9.933 49.357 1.126 95.335 14.745 138.24 39.321 4.916 2.663 10.24 4.199 18.944 7.68zM389.53 516.608V153.702c0-39.628 0-39.628 39.526-39.628 66.253 0 132.608 0.102 198.86-0.103 18.433-0.102 20.788-2.765 20.89-20.992 0.103-18.841 0-37.683 0-56.525 0-26.01 0-26.112-26.01-26.112H110.695c-22.425 0-44.85-0.102-67.379 0-21.299 0.103-22.425 1.23-22.425 21.812a5800.81 5800.81 0 0 0 0 59.699c0.102 20.582 1.638 22.22 22.528 22.22 69.939 0.103 139.878 0 209.817 0 24.269 0 24.269 0 24.269 23.655v755.61c0 21.81 0.512 22.425 21.504 22.528 22.938 0.102 45.978 0.102 68.915 0 21.402-0.103 21.504-0.205 21.504-22.221 0.103-125.645 0.103-251.29 0.103-377.037z" p-id="2079" fill="#007AFF"></path></svg>