<?xml version="1.0" standalone="no"?><!DOCTYPE svg PUBLIC "-//W3C//DTD SVG 1.1//EN" "http://www.w3.org/Graphics/SVG/1.1/DTD/svg11.dtd"><svg t="1624802499163" class="icon" viewBox="0 0 1024 1024" version="1.1" xmlns="http://www.w3.org/2000/svg" p-id="3082" xmlns:xlink="http://www.w3.org/1999/xlink" width="200" height="200"><defs><style type="text/css"></style></defs><path d="M511.998465 957.724551c245.766426 0 445.725574-199.960171 445.725574-445.724551 0-245.76438-199.959148-445.724551-445.725574-445.724551-245.76438 0-445.723527 199.961194-445.723527 445.724551C66.274938 757.76438 266.233062 957.724551 511.998465 957.724551L511.998465 957.724551zM511.998465 121.990379c215.066217 0 390.010645 174.943404 390.010645 390.009621 0 215.059054-174.944428 390.010645-390.010645 390.010645-215.065194 0-390.008598-174.951591-390.008598-390.010645C121.989867 296.934806 296.933271 121.990379 511.998465 121.990379L511.998465 121.990379zM511.998465 218.257909c96.075149 0 173.984566 77.250408 173.984566 172.573427 0 95.294366-77.875648 172.536588-173.984566 172.536588-96.102778 0-173.951821-77.249385-173.951821-172.536588C338.046644 295.508317 415.927409 218.257909 511.998465 218.257909L511.998465 218.257909zM511.998465 514.047636c68.633147 0 124.276445-55.18895 124.276445-123.250068 0-68.088748-55.643298-123.249045-124.276445-123.249045-68.633147 0-124.274398 55.19202-124.274398 123.249045C387.724067 458.887338 443.365318 514.047636 511.998465 514.047636L511.998465 514.047636zM511.998465 514.047636c137.291876 0 248.551866 110.355387 248.551866 246.503207l-49.714262 0c0-108.87978-89.021499-197.181895-198.837604-197.181895-109.814058 0-198.839651 88.302115-198.839651 197.181895l-49.711192 0C263.448646 624.403023 374.709659 514.047636 511.998465 514.047636L511.998465 514.047636zM511.998465 514.047636" p-id="3083"></path></svg>