<?xml version="1.0" standalone="no"?><!DOCTYPE svg PUBLIC "-//W3C//DTD SVG 1.1//EN" "http://www.w3.org/Graphics/SVG/1.1/DTD/svg11.dtd"><svg t="1625795660660" class="icon" viewBox="0 0 1146 1024" version="1.1" xmlns="http://www.w3.org/2000/svg" p-id="22327" xmlns:xlink="http://www.w3.org/1999/xlink" width="223.828125" height="200"><defs><style type="text/css"></style></defs><path d="M1015.808 1024H131.072c-32.768 0-65.536-12.288-86.016-36.864-24.576-24.576-36.864-53.248-36.864-86.016 0-20.48 4.096-40.96 16.384-61.44l442.368-778.24c16.384-28.672 40.96-49.152 73.728-57.344 32.768-8.192 65.536-4.096 94.208 12.288 20.48 12.288 36.864 28.672 45.056 45.056l442.368 778.24c16.384 28.672 20.48 61.44 12.288 94.208-8.192 32.768-28.672 57.344-57.344 73.728-16.384 12.288-36.864 16.384-61.44 16.384zM573.44 81.92h-12.288c-12.288 4.096-20.48 8.192-24.576 20.48l-442.368 778.24c-4.096 8.192-4.096 12.288-4.096 20.48 0 12.288 4.096 20.48 12.288 28.672 8.192 8.192 16.384 12.288 28.672 12.288h888.832c8.192 0 12.288 0 20.48-4.096s16.384-12.288 20.48-24.576c4.096-12.288 0-20.48-4.096-32.768L614.4 102.4c-4.096-8.192-8.192-12.288-16.384-16.384-12.288 0-16.384-4.096-24.576-4.096z" fill="#FD6B32" p-id="22328"></path><path d="M573.44 696.32c-24.576 0-40.96-16.384-40.96-40.96V368.64c0-24.576 16.384-40.96 40.96-40.96s40.96 16.384 40.96 40.96v286.72c0 24.576-16.384 40.96-40.96 40.96z m0-348.16V368.64v-20.48z" fill="#FD6B32" p-id="22329"></path><path d="M573.44 778.24m-40.96 0a40.96 40.96 0 1 0 81.92 0 40.96 40.96 0 1 0-81.92 0Z" p-id="22330"></path></svg>