<?xml version="1.0" standalone="no"?><!DOCTYPE svg PUBLIC "-//W3C//DTD SVG 1.1//EN" "http://www.w3.org/Graphics/SVG/1.1/DTD/svg11.dtd"><svg t="1624093522731" class="icon" viewBox="0 0 1024 1024" version="1.1" xmlns="http://www.w3.org/2000/svg" p-id="2267" xmlns:xlink="http://www.w3.org/1999/xlink" width="200" height="200"><defs><style type="text/css"></style></defs><path d="M940.7488 774.144L585.728 165.0688a85.504 85.504 0 0 0-147.456 0L83.2512 774.144a83.3536 83.3536 0 0 0 0 84.2752 84.3776 84.3776 0 0 0 73.728 42.7008h710.0416a84.3776 84.3776 0 0 0 74.0352-42.7008 83.3536 83.3536 0 0 0-0.3072-84.2752z m-35.2256 63.8976A43.9296 43.9296 0 0 1 867.0208 860.16H156.9792a43.9296 43.9296 0 0 1-38.5024-22.1184 42.7008 42.7008 0 0 1 0-43.2128l355.1232-609.0752a44.6464 44.6464 0 0 1 76.8 0l355.0208 609.0752a42.7008 42.7008 0 0 1 0.1024 43.2128z" p-id="2268"></path><path d="M512 665.6a20.48 20.48 0 0 0 20.48-20.48V389.12a20.48 20.48 0 0 0-40.96 0v256a20.48 20.48 0 0 0 20.48 20.48zM512 701.44a35.84 35.84 0 1 0 35.84 35.84 35.84 35.84 0 0 0-35.84-35.84z" p-id="2269"></path></svg>