<?xml version="1.0" standalone="no"?><!DOCTYPE svg PUBLIC "-//W3C//DTD SVG 1.1//EN" "http://www.w3.org/Graphics/SVG/1.1/DTD/svg11.dtd"><svg t="1622870262201" class="icon" viewBox="0 0 1024 1024" version="1.1" xmlns="http://www.w3.org/2000/svg" p-id="3783" xmlns:xlink="http://www.w3.org/1999/xlink" width="200" height="200"><defs><style type="text/css"></style></defs><path d="M232.2 575.8c-12 9.7-24.9 23.7-28.6 41.7-5.1 24.5-1.1 55.1 22.6 79.2 28.6 29.2 72.1 37.1 90.9 38.5 51 3.7 105.4-21.6 146.4-50.5 16.1-11.3 43.6-34.1 69.9-69.2-58.9-30.4-132.5-64.1-211.2-60.8-40.2 1.6-69 10-90 21.1z m747.4 134.6c26.7-62.8 40.5-130.4 40.4-198.6C1020 231.5 792 3.4 511.7 3.4S3.4 231.5 3.4 511.7c0 280.3 228 508.3 508.3 508.3 169.1 0 319.2-83.1 411.6-210.6C836 766 692 694.5 603.3 651.3c-42.3 48.2-104.9 96.6-175.6 117.6-44.4 13.2-84.4 18.2-126.3 9.7-41.4-8.5-71.9-27.9-89.7-47.3-9.1-9.9-19.5-22.5-27-37.5 0.7 1.9 1.2 3 1.2 3s-4.3-7.5-7.6-19.4c-1.7-5.9-2.9-11.9-3.3-18-0.4-4.3-0.4-8.6-0.2-12.9-0.4-7.7-0.1-15.7 1.7-23.9 4.2-20.1 12.7-43.5 34.9-65.2 48.7-47.7 113.9-50.3 147.7-50.1 50.1 0.3 137 22.2 210.3 48.1 20.3-43.2 33.3-89.4 41.7-120.2H306.5v-32.9h156.4v-65.9H273.6v-32.9h189.3v-65.8c0-9 1.8-16.5 16.5-16.5h74.1v82.3h205.8v32.9H553.4v65.9H718s-16.5 92.2-68.2 183c114.8 40.8 276.1 104 329.8 125.1z" fill="#1296db" p-id="3784"></path></svg>