<?xml version="1.0" standalone="no"?><!DOCTYPE svg PUBLIC "-//W3C//DTD SVG 1.1//EN" "http://www.w3.org/Graphics/SVG/1.1/DTD/svg11.dtd"><svg t="1622870172267" class="icon" viewBox="0 0 1024 1024" version="1.1" xmlns="http://www.w3.org/2000/svg" p-id="2683" xmlns:xlink="http://www.w3.org/1999/xlink" width="200" height="200"><defs><style type="text/css"></style></defs><path d="M512.4 176.16c-74.33 0-143.01 24.15-198.64 65.02l469.43 469.43c40.88-55.63 65.02-124.32 65.02-198.64 0.01-185.46-150.34-335.81-335.81-335.81zM235.81 321.48c-37.35 54.13-59.22 119.76-59.22 190.49 0 185.46 150.35 335.81 335.81 335.81 70.71 0 136.32-21.86 190.44-59.18L235.81 321.48zM512.4 64.22c247.29 0 447.75 200.47 447.75 447.75 0 105.26-36.32 202.04-97.12 278.49l0.62 0.59-5.97 6.01a450.584 450.584 0 0 1-60.2 60.2L784.5 870.2l-1.52-1.45c-75.16 57.09-168.92 90.98-270.59 90.98-247.29 0-447.75-200.47-447.75-447.75S265.12 64.22 512.4 64.22z" fill="#d81e06" p-id="2684"></path></svg>