<?xml version="1.0" standalone="no"?><!DOCTYPE svg PUBLIC "-//W3C//DTD SVG 1.1//EN" "http://www.w3.org/Graphics/SVG/1.1/DTD/svg11.dtd"><svg t="1622870145587" class="icon" viewBox="0 0 1024 1024" version="1.1" xmlns="http://www.w3.org/2000/svg" p-id="2252" width="200" height="200" xmlns:xlink="http://www.w3.org/1999/xlink"><defs><style type="text/css"></style></defs><path d="M512 64c-247.7 0-448 200.3-448 448s200.3 448 448 448S960 759.7 960 512 759.7 64 512 64z m210.9 595.5c17.5 17.5 17.5 45.8 0 63.3-8.7 8.7-20.2 13.1-31.7 13.1s-22.9-4.4-31.7-13.1L512 575.3l-147.5 147.5c-8.7 8.7-20.2 13.1-31.7 13.1s-22.9-4.4-31.7-13.1c-17.5-17.5-17.5-45.8 0-63.3L448.7 512l-147.5-147.5c-17.5-17.5-17.5-45.8 0-63.3s45.8-17.5 63.3 0L512 448.7l147.5-147.5c17.5-17.5 45.8-17.5 63.3 0s17.5 45.8 0 63.3L575.3 512l147.6 147.5z" p-id="2253" fill="#d81e06"></path></svg>